<?xml version="1.0" encoding="utf-8"?>
<!-- Generator: Adobe Illustrator 22.0.1, SVG Export Plug-In . SVG Version: 6.00 Build 0)  -->
<svg version="1.1" id="Layer_1" xmlns="http://www.w3.org/2000/svg" xmlns:xlink="http://www.w3.org/1999/xlink" x="0px" y="0px"
	 viewBox="0 0 495 71.4" style="enable-background:new 0 0 495 71.4;" xml:space="preserve">
<style type="text/css">
	.st0{stroke:#FFFFFF;stroke-miterlimit:10;}
	.st1{fill:#EE7203;}
	.st2{fill:#ED8921;}
	.st3{display:none;fill:#FFFFFF;stroke:#000000;stroke-miterlimit:10;}
</style>
<g>
	<path class="st0" d="M280.1,55.7h-27.4l13.8-54h-16.4l-2.9,11.6l-1.7,6.8l-12.6,49.7h48l1.6-8.1C281.7,60.2,280.6,58.2,280.1,55.7z
		"/>
	<path class="st1" d="M58.2,29c0.7-3.3,1-5.1,1.1-8.9h-15L32.1,69.9h17.5l4.8-19.2c2.7-10.9,7.7-17.3,13.6-17.3
		c2.1,0,4.2,0.8,7.5,2.7l4-16.1c-2.1-0.7-4-1-5.7-1C68.4,19.1,65.6,20.8,58.2,29z"/>
	<path class="st1" d="M114.3,20.1l-6.6,26.3c-1.9,7.6-4.7,10.7-9.8,10.7c-3.6,0-5.7-1.8-5.7-4.7c0-1.1,0.3-2.8,0.8-4.9l6.8-27.3
		H82.3l-6.5,26c-0.9,3.7-1.5,7.6-1.5,10c0,8.6,7.1,14.8,16.8,14.8c5.6,0,9.8-1.8,14.2-6c-0.2,2-0.2,2.6-0.3,4.9h16.2
		c-0.1-2-0.1-2.7-0.1-3.8c0-2.6,0.2-4.2,1.5-9l2.2-8.8c0.2-5,1.4-9.7,3.5-13.8l3.6-14.4"/>
	<path class="st1" d="M157.3,31.8c3.7,0,5.6,2.1,5.6,6.4h16.5v-1.4c0-11.4-7.6-17.7-21-17.7c-11.6,0-21.3,5.7-26.6,14.5
		c-2.8,4.6-4.3,10.1-4.3,16.2v1.1c0.5,12.6,9.3,20.5,23.4,20.5c14,0,23.7-7.3,27.2-20.4h-16.6c-2.1,5.4-4.7,7.7-8.7,7.7
		c-4.6,0-7.2-3.3-7.2-8.9C145.5,40.1,151,31.8,157.3,31.8z"/>
	<polygon class="st1" points="3.8,0 0,14.4 19.1,14.4 5.3,69.9 23.5,69.9 37.3,14.4 54.4,14.4 58.2,0 	"/>
	<path class="st2" d="M239.9,20.1"/>
	<polyline class="st1" points="241.8,20.1 220.2,20.1 200.8,38.8 205.5,20.1 187.9,20.1 180.7,48.9 179.5,53.9 175.5,69.9 
		192.9,69.9 198.6,47.5 211,69.9 231,69.9 214.9,43.4 241.8,20.1 	"/>
	<path class="st3" d="M310,32.1c-4.8,0-8,2.5-10.3,7.9h17.9C317.5,34.6,315,32.1,310,32.1z"/>
	<path class="st0" d="M310,32.1c5,0,7.5,2.5,7.7,7.9h-17.9C302,34.6,305.2,32.1,310,32.1z M331.4,49.3c1-3.4,1.4-5.9,1.4-9.1
		c0-11.7-8.4-19.1-21.7-19.1c-9,0-17,3.9-22.3,10.1c-1.2,1.4-2.2,2.9-3.1,4.4c-0.4,0.7-0.8,1.5-1.1,2.2c-0.2,0.5-0.4,1-0.6,1.4
		c-1.3,3.3-2,6.9-2,10.8c0,12.7,8.6,20.5,22.8,20.5c11.8,0,20.1-5.3,24.3-15.3l-14.8-1.3c-2,3.7-4.2,5.1-7.9,5.1c-5,0-8.1-3-8.1-7.9
		c0-0.4,0-1,0.1-1.8H331.4L331.4,49.3z"/>
	<path class="st3" d="M429.5,32.1c-4.8,0-8,2.5-10.3,7.9h17.9C437,34.6,434.5,32.1,429.5,32.1z"/>
	<path class="st0" d="M428.1,31.9c4.9,0,7.5,2.5,7.7,7.9h-17.9C420.1,34.3,423.3,31.9,428.1,31.9z M449.4,49.1
		c1-3.4,1.4-5.9,1.4-9.1c0-11.7-8.4-19.1-21.7-19.1c-9,0-17,3.9-22.3,10.1c-1.1,1.4-2.2,2.8-3.1,4.4c-0.4,0.7-0.8,1.5-1.1,2.2
		c-0.2,0.5-0.4,1-0.6,1.4c-1.3,3.3-2,6.9-2,10.7c0,12.7,8.7,20.5,22.8,20.5c11.9,0,20.1-5.3,24.3-15.3l-14.8-1.3
		c-2,3.7-4.2,5.1-7.9,5.1c-5,0-8.1-3-8.1-7.9c0-0.4,0-1,0.1-1.8L449.4,49.1L449.4,49.1z"/>
	<path class="st0" d="M387.4,50.9l4-17.1h10.2l3.1-11.5h-10.2l3.4-13.1H382l-3.4,13.1H371h-0.1h-10l3.4-13.1h-15.9L345,22.3h-8
		l-3,11.4h7.4l-3.8,15.2c-2,7.1-2.4,8.5-2.4,10.7c0,6.2,5.6,10.7,13.1,10.7c3.8,0,8.2-1,12.7-2.8l3-11.8c-4,1.1-5.9,1.5-8.1,1.5
		c-2,0-3.2-0.8-3.2-2.2c0-0.6,0.1-1.3,0.4-2.2l0.5-2l4-17.1h10h0.1h7.2l-3.5,15.2c-2,7.1-2.4,8.5-2.4,10.7c0,6.2,5.6,10.7,13.1,10.7
		c3.8,0,8.2-1,12.6-2.8l3-11.8c-4,1.1-5.9,1.5-8.1,1.5c-2,0-3.2-0.8-3.2-2.2c0-0.6,0.1-1.3,0.4-2.2L387.4,50.9z"/>
	<path class="st0" d="M473.7,28.8c0.7-3.3,1-5.1,1.1-8.9h-14.3l-12.3,49.7h16.9l4.8-19.2c2.7-10.9,7.7-17.3,13.6-17.3
		c2.1,0,4.2,0.8,7.5,2.7l4-16.1c-2.1-0.7-4-1-5.7-1C483.9,18.8,481.1,20.6,473.7,28.8z"/>
</g>
</svg>
